<svg width="40" height="40" viewBox="0 0 40 40" xmlns="http://www.w3.org/2000/svg">
  <rect x="0" y="0" width="40" height="40" rx="7" fill="#f6f5f1"/>
  <g transform="translate(3,3)">
    <rect x="0" y="0" width="7" height="7" fill="#14213d"/>
    <rect x="9" y="0" width="7" height="7" fill="#14213d"/>
    <rect x="18" y="0" width="7" height="7" fill="#14213d"/>
    <rect x="27" y="0" width="7" height="7" fill="#14213d"/>
    <rect x="0" y="9" width="7" height="7" fill="#14213d"/>
    <rect x="9" y="9" width="7" height="7" fill="#d4a017"/>
    <rect x="18" y="9" width="7" height="7" fill="#14213d"/>
    <rect x="27" y="9" width="7" height="7" fill="#14213d"/>
    <rect x="0" y="18" width="7" height="7" fill="#14213d"/>
    <rect x="9" y="18" width="7" height="7" fill="#14213d"/>
    <rect x="18" y="18" width="7" height="7" fill="#14213d"/>
    <rect x="27" y="18" width="7" height="7" fill="#14213d"/>
    <rect x="0" y="27" width="7" height="7" fill="#14213d"/>
    <rect x="9" y="27" width="7" height="7" fill="#14213d"/>
    <rect x="18" y="27" width="7" height="7" fill="#14213d"/>
    <rect x="27" y="27" width="7" height="7" fill="#14213d"/>
  </g>
</svg>
